<svg xmlns="http://www.w3.org/2000/svg">
<symbol id="eye-slash" viewBox="0 0 32 32" fill="none"><path fill="currentColor" d="M6.74 4.327a1 1 0 1 0-1.48 1.345L7.665 8.32c-4.54 2.786-6.493 7.081-6.579 7.276a1 1 0 0 0 0 .812c.044.1 1.103 2.447 3.456 4.8C7.68 24.344 11.64 26 16 26c2.24.013 4.459-.449 6.509-1.354l2.75 3.026a1 1 0 1 0 1.48-1.344zm5.916 9.48 5.209 5.732a4 4 0 0 1-5.209-5.732M16 24c-3.847 0-7.209-1.399-9.991-4.156A16.7 16.7 0 0 1 3.125 16c.586-1.099 2.457-4.174 5.919-6.173l2.25 2.47a6 6 0 0 0 7.957 8.75l1.842 2.024A14 14 0 0 1 16 24m.75-11.929a1 1 0 1 1 .375-1.965 6.02 6.02 0 0 1 4.846 5.33 1 1 0 0 1-.902 1.089 1 1 0 0 1-.094 0 1 1 0 0 1-1-.907 4.01 4.01 0 0 0-3.225-3.547m14.16 4.336c-.052.118-1.319 2.922-4.17 5.476a1 1 0 1 1-1.334-1.49A16.6 16.6 0 0 0 28.881 16a16.6 16.6 0 0 0-2.89-3.846C23.21 9.399 19.848 8 16 8c-.81-.001-1.62.065-2.42.196a1 1 0 1 1-.33-1.972A17 17 0 0 1 16 6c4.36 0 8.321 1.657 11.458 4.794 2.353 2.354 3.412 4.702 3.456 4.801a1 1 0 0 1 0 .812z"/></symbol>
<symbol id="link" viewBox="0 0 32 32" fill="none"><path fill="currentColor" d="M30 11.029a6.8 6.8 0 0 1-2 4.625L23.656 20a6.8 6.8 0 0 1-4.828 2h-.007A6.83 6.83 0 0 1 12 14.98a1 1 0 1 1 2 .056 4.828 4.828 0 0 0 6.67 4.599 4.8 4.8 0 0 0 1.566-1.049l4.344-4.344a4.828 4.828 0 0 0-6.829-6.828l-1.375 1.375a1 1 0 0 1-1.414-1.414L18.338 6a6.83 6.83 0 0 1 11.18 2.309c.344.864.508 1.79.483 2.72M13.625 23.207l-1.375 1.375A4.8 4.8 0 0 1 8.825 26a4.828 4.828 0 0 1-3.411-8.243l4.336-4.343a4.828 4.828 0 0 1 8.25 3.55 1 1 0 1 0 2 .056A6.86 6.86 0 0 0 18 12a6.83 6.83 0 0 0-9.659 0L4 16.344a6.827 6.827 0 0 0 7.435 11.14A6.8 6.8 0 0 0 13.65 26l1.375-1.375a1 1 0 0 0-1.4-1.418"/></symbol>
<symbol id="list-bullets" viewBox="0 0 32 32" fill="none"><path fill="currentColor" d="M10 8a1 1 0 0 1 1-1h16a1 1 0 1 1 0 2H11a1 1 0 0 1-1-1m17 7H11a1 1 0 0 0 0 2h16a1 1 0 0 0 0-2m0 8H11a1 1 0 0 0 0 2h16a1 1 0 0 0 0-2M5.5 6.5a1.5 1.5 0 1 0 0 3 1.5 1.5 0 0 0 0-3m0 8a1.5 1.5 0 1 0 0 3 1.5 1.5 0 0 0 0-3m0 8a1.5 1.5 0 1 0 0 3 1.5 1.5 0 0 0 0-3"/></symbol>
<symbol id="list-numbers" viewBox="0 0 32 32" fill="none"><path fill="currentColor" d="M28 16a1 1 0 0 1-1 1H13a1 1 0 0 1 0-2h14a1 1 0 0 1 1 1M13 9h14a1 1 0 0 0 0-2H13a1 1 0 1 0 0 2m14 14H13a1 1 0 1 0 0 2h14a1 1 0 0 0 0-2M5.448 6.895 6 6.617V13a1 1 0 1 0 2 0V5a1 1 0 0 0-1.447-.895l-2 1a1 1 0 0 0 .895 1.79M9.97 19.59a2.97 2.97 0 0 0-1.2-1.994 3.11 3.11 0 0 0-4.263.588c-.19.244-.341.516-.447.807a1 1 0 1 0 1.875.684 1 1 0 0 1 .148-.266 1.095 1.095 0 0 1 1.772.092q.106.173.135.374a.96.96 0 0 1-.206.736L4.2 25.401A1 1 0 0 0 5 27h4a1 1 0 0 0 0-2H7l2.385-3.191a2.93 2.93 0 0 0 .586-2.219"/></symbol>
<symbol id="quotes" viewBox="0 0 32 32" fill="none"><path fill="currentColor" d="M12.5 7H5a2 2 0 0 0-2 2v8a2 2 0 0 0 2 2h7.5v1a4 4 0 0 1-4 4 1 1 0 0 0 0 2 6.006 6.006 0 0 0 6-6V9a2 2 0 0 0-2-2m0 10H5V9h7.5zM27 7h-7.5a2 2 0 0 0-2 2v8a2 2 0 0 0 2 2H27v1a4 4 0 0 1-4 4 1 1 0 0 0 0 2 6.006 6.006 0 0 0 6-6V9a2 2 0 0 0-2-2m0 10h-7.5V9H27z"/></symbol>
<symbol id="text-bold" viewBox="0 0 32 32" fill="none"><path fill="currentColor" d="M22.31 14.463A5.5 5.5 0 0 0 18.5 5H10a1 1 0 0 0-1 1v19a1 1 0 0 0 1 1h10a6 6 0 0 0 2.31-11.537M11 7h7.5a3.5 3.5 0 1 1 0 7H11zm9 17h-9v-8h9a4 4 0 1 1 0 8"/></symbol>
<symbol id="text-italic" viewBox="0 0 32 32" fill="none"><path fill="currentColor" d="M25 7a1 1 0 0 1-1 1h-4.279l-5.334 16H18a1 1 0 0 1 0 2H8a1 1 0 0 1 0-2h4.279l5.334-16H14a1 1 0 1 1 0-2h10a1 1 0 0 1 1 1"/></symbol>
</svg>
