<svg width="16" height="16" viewBox="0 0 16 16" fill="none" xmlns="http://www.w3.org/2000/svg">
<g clip-path="url(#clip0_4699_310)">
<path d="M0 0H10.5C13.5376 0 16 2.46243 16 5.5V16H5.5C2.46243 16 0 13.5376 0 10.5V0Z" fill="#1E1E1E" style="fill:#1E1E1E;fill:color(display-p3 0.1176 0.1176 0.1176);fill-opacity:1;"/>
<path d="M10.209 2C12.3015 2 13.998 3.69658 13.998 5.78906V10.7832L11.0967 7.88184C11.9109 7.53604 12.4823 6.72936 12.4824 5.78906C12.4824 5.27195 12.3094 4.79504 12.0186 4.41309C12.0151 4.40857 12.0113 4.4039 12.0078 4.39941C11.9444 4.31741 11.8756 4.23954 11.8018 4.16699C11.7982 4.16349 11.7946 4.15973 11.791 4.15625C11.7705 4.13638 11.7498 4.11675 11.7285 4.09766C11.7237 4.09336 11.7187 4.08921 11.7139 4.08496C11.7031 4.07543 11.6916 4.06597 11.6807 4.05664C11.6768 4.05335 11.6728 4.05014 11.6689 4.04688C11.6581 4.03776 11.6468 4.02844 11.6357 4.01953C11.6309 4.0156 11.626 4.0117 11.6211 4.00781C11.615 4.00297 11.6087 3.99794 11.6025 3.99316C11.5955 3.98771 11.5881 3.98193 11.5811 3.97656C11.5722 3.96984 11.5637 3.96265 11.5547 3.95605C11.5496 3.95231 11.5442 3.94901 11.5391 3.94531C11.5295 3.93837 11.5195 3.9316 11.5098 3.9248C11.5022 3.91955 11.4949 3.91337 11.4873 3.9082C11.4819 3.90449 11.4762 3.90112 11.4707 3.89746C11.4618 3.89151 11.4524 3.88571 11.4434 3.87988C11.4349 3.87439 11.4265 3.86867 11.418 3.86328C11.4119 3.85945 11.4055 3.85534 11.3994 3.85156C11.3933 3.84782 11.387 3.84451 11.3809 3.84082C11.3696 3.83403 11.3581 3.82691 11.3467 3.82031C11.3417 3.8174 11.3361 3.81439 11.3311 3.81152C11.3227 3.8068 11.314 3.8015 11.3057 3.79688C11.2971 3.79214 11.2879 3.78783 11.2793 3.7832C11.2708 3.77868 11.2624 3.77395 11.2539 3.76953C11.2488 3.76691 11.2434 3.76431 11.2383 3.76172C11.2266 3.75576 11.214 3.7499 11.2021 3.74414C11.195 3.74065 11.1879 3.73681 11.1807 3.7334C11.1738 3.73016 11.167 3.72681 11.1602 3.72363C11.1515 3.71962 11.1425 3.71582 11.1338 3.71191C11.123 3.70708 11.1115 3.70193 11.1006 3.69727C11.0961 3.69534 11.0915 3.69331 11.0869 3.69141C11.0731 3.68561 11.0589 3.67936 11.0449 3.67383C11.0418 3.67259 11.0383 3.67213 11.0352 3.6709C11.023 3.66613 11.0104 3.66081 10.998 3.65625C10.9942 3.65482 10.9902 3.65375 10.9863 3.65234C10.9721 3.64716 10.9577 3.64162 10.9434 3.63672C10.9403 3.63566 10.9367 3.63484 10.9336 3.63379C10.9191 3.62891 10.9043 3.62373 10.8896 3.61914C10.8852 3.61775 10.8804 3.6166 10.876 3.61523C10.8644 3.61167 10.8525 3.60787 10.8408 3.60449C10.8363 3.60319 10.8317 3.60186 10.8271 3.60059C10.8126 3.59648 10.7979 3.59269 10.7832 3.58887C10.7794 3.58788 10.7753 3.58691 10.7715 3.58594C10.7556 3.58189 10.7396 3.57793 10.7236 3.57422C10.722 3.57385 10.7204 3.57361 10.7188 3.57324C10.7029 3.56961 10.6869 3.5658 10.6709 3.5625C10.6691 3.56214 10.6668 3.56188 10.665 3.56152C10.6485 3.55816 10.6319 3.55476 10.6152 3.55176C10.6121 3.5512 10.6086 3.55035 10.6055 3.5498C10.5891 3.54692 10.5722 3.54452 10.5557 3.54199C10.5544 3.5418 10.553 3.54121 10.5518 3.54102C10.5363 3.53867 10.5205 3.53718 10.5049 3.53516C10.5019 3.53477 10.4991 3.53358 10.4961 3.5332C10.4803 3.53122 10.4641 3.52998 10.4482 3.52832C10.4438 3.52785 10.4391 3.52681 10.4346 3.52637C10.4204 3.52498 10.4058 3.52359 10.3916 3.52246C10.3861 3.52202 10.3805 3.52188 10.375 3.52148C10.3608 3.52046 10.3463 3.51932 10.332 3.51855C10.3285 3.51837 10.3248 3.51873 10.3213 3.51855C10.3051 3.51777 10.2887 3.51705 10.2725 3.5166C10.2689 3.5165 10.2653 3.51668 10.2617 3.5166C10.2442 3.5162 10.2266 3.51562 10.209 3.51562H3.51562V10.209C3.51562 10.2279 3.51614 10.2468 3.5166 10.2656C3.51672 10.2704 3.51645 10.2756 3.5166 10.2803C3.51703 10.2941 3.51788 10.3085 3.51855 10.3223C3.51896 10.3304 3.51905 10.3386 3.51953 10.3467C3.52011 10.3564 3.52078 10.3663 3.52148 10.376C3.52216 10.3853 3.52265 10.395 3.52344 10.4043C3.52419 10.4131 3.52552 10.4219 3.52637 10.4307C3.52726 10.4399 3.52829 10.4498 3.5293 10.459C3.53036 10.4688 3.53104 10.4786 3.53223 10.4883C3.53313 10.4956 3.53418 10.5034 3.53516 10.5107C3.53653 10.5211 3.53853 10.5317 3.54004 10.542C3.54126 10.5503 3.54264 10.5591 3.54395 10.5674C3.54548 10.5771 3.54717 10.587 3.54883 10.5967C3.55026 10.6051 3.5512 10.6137 3.55273 10.6221C3.55459 10.6322 3.5566 10.6423 3.55859 10.6523C3.56003 10.6596 3.56197 10.6676 3.56348 10.6748C3.56551 10.6846 3.56718 10.6944 3.56934 10.7041C3.57115 10.7123 3.57329 10.7204 3.5752 10.7285C3.57782 10.7397 3.58022 10.7516 3.58301 10.7627C3.58448 10.7686 3.58637 10.7744 3.58789 10.7803C3.59074 10.7913 3.59367 10.8025 3.59668 10.8135C3.59847 10.82 3.60069 10.8265 3.60254 10.833C3.61741 10.8852 3.6339 10.9367 3.65234 10.9873C3.65453 10.9933 3.65695 10.9999 3.65918 11.0059C3.66305 11.0162 3.66689 11.0269 3.6709 11.0371C3.67361 11.044 3.67692 11.0507 3.67969 11.0576C3.68362 11.0674 3.68734 11.0772 3.69141 11.0869C3.69468 11.0947 3.69781 11.1026 3.70117 11.1104C3.70428 11.1175 3.70775 11.1247 3.71094 11.1318C3.7151 11.1412 3.71935 11.1509 3.72363 11.1602C3.72723 11.168 3.73069 11.1758 3.73438 11.1836C3.73789 11.191 3.74152 11.1987 3.74512 11.2061C3.74954 11.2151 3.75425 11.2244 3.75879 11.2334C3.76194 11.2396 3.76535 11.2457 3.76855 11.252C3.773 11.2605 3.77768 11.2698 3.78223 11.2783C3.78639 11.2861 3.79067 11.294 3.79492 11.3018L3.82031 11.3467C3.82497 11.3547 3.83021 11.3631 3.83496 11.3711C3.83918 11.3782 3.84335 11.3855 3.84766 11.3926C3.85281 11.401 3.85803 11.4096 3.86328 11.418C3.86718 11.4242 3.87105 11.4304 3.875 11.4365C3.88166 11.4469 3.88869 11.4575 3.89551 11.4678C3.91405 11.4956 3.93341 11.5229 3.95312 11.5498C3.95692 11.555 3.961 11.5603 3.96484 11.5654C3.96899 11.571 3.97334 11.5765 3.97754 11.582C3.98428 11.5909 3.99118 11.5996 3.99805 11.6084C4.00277 11.6144 4.00694 11.621 4.01172 11.627C4.01716 11.6338 4.0228 11.6407 4.02832 11.6475C4.0355 11.6562 4.0425 11.6652 4.0498 11.6738C4.05319 11.6778 4.05713 11.6816 4.06055 11.6855C4.0683 11.6946 4.07609 11.704 4.08398 11.7129C4.08775 11.7172 4.09191 11.7214 4.0957 11.7256C4.10325 11.734 4.1105 11.7427 4.11816 11.751C4.12199 11.7551 4.12602 11.7596 4.12988 11.7637C4.13728 11.7716 4.14483 11.7793 4.15234 11.7871L4.20312 11.8379C4.21106 11.8456 4.21949 11.8537 4.22754 11.8613C4.2319 11.8654 4.23682 11.8699 4.24121 11.874C4.2496 11.8818 4.2581 11.8898 4.2666 11.8975C4.26878 11.8994 4.27125 11.9014 4.27344 11.9033C4.31685 11.9422 4.36189 11.9792 4.4082 12.0146C4.41347 12.0187 4.41853 12.0234 4.42383 12.0273C4.44795 12.0455 4.47319 12.0629 4.49805 12.0801C4.50156 12.0825 4.50526 12.0855 4.50879 12.0879C4.51897 12.0948 4.52974 12.1016 4.54004 12.1084L4.58105 12.1357C4.58611 12.1389 4.5916 12.1414 4.59668 12.1445C4.60605 12.1503 4.61554 12.1565 4.625 12.1621C4.6304 12.1653 4.63618 12.1687 4.6416 12.1719C4.65229 12.1781 4.66303 12.1843 4.67383 12.1904C4.67616 12.1917 4.6793 12.193 4.68164 12.1943C4.70889 12.2096 4.73672 12.2242 4.76465 12.2383C4.76816 12.2401 4.77187 12.2424 4.77539 12.2441C4.8625 12.2876 4.95287 12.3253 5.0459 12.3574C5.04755 12.358 5.04913 12.3588 5.05078 12.3594C5.08234 12.3702 5.11431 12.3802 5.14648 12.3896L5.14941 12.3906C5.16401 12.3949 5.17864 12.3993 5.19336 12.4033C5.19625 12.4041 5.19925 12.4045 5.20215 12.4053C5.21568 12.4089 5.22953 12.4127 5.24316 12.416C5.24672 12.4169 5.25034 12.4181 5.25391 12.4189C5.26738 12.4222 5.28135 12.4247 5.29492 12.4277C5.29854 12.4285 5.30204 12.4299 5.30566 12.4307C5.31954 12.4337 5.33368 12.4367 5.34766 12.4395C5.35021 12.44 5.35291 12.4399 5.35547 12.4404C5.37077 12.4434 5.38693 12.4466 5.40234 12.4492H5.40332C5.41999 12.4521 5.43731 12.4555 5.4541 12.458H5.45703C5.56533 12.4738 5.67637 12.4824 5.78906 12.4824H11.4102L6.54688 7.61816V10.9668H5.78906C5.37057 10.9668 5.03125 10.6275 5.03125 10.209V5.03125H10.209C10.6275 5.03125 10.9668 5.37057 10.9668 5.78906C10.9666 6.20742 10.6274 6.54688 10.209 6.54688H7.61816L15.0811 14L13.6436 13.998H5.78906C3.69658 13.998 2 12.3015 2 10.209V2H10.209Z" fill="#B9FE67" style="fill:#B9FE67;fill:color(display-p3 0.7255 0.9961 0.4039);fill-opacity:1;"/>
<path d="M10.209 2C12.3015 2 13.998 3.69658 13.998 5.78906V10.7832L11.0967 7.88184C11.9109 7.53604 12.4823 6.72936 12.4824 5.78906C12.4824 5.27195 12.3094 4.79504 12.0186 4.41309C12.0151 4.40857 12.0113 4.4039 12.0078 4.39941C11.9444 4.31741 11.8756 4.23954 11.8018 4.16699C11.7982 4.16349 11.7946 4.15973 11.791 4.15625C11.7705 4.13638 11.7498 4.11675 11.7285 4.09766C11.7237 4.09336 11.7187 4.08921 11.7139 4.08496C11.7031 4.07543 11.6916 4.06597 11.6807 4.05664C11.6768 4.05335 11.6728 4.05014 11.6689 4.04688C11.6581 4.03776 11.6468 4.02844 11.6357 4.01953C11.6309 4.0156 11.626 4.0117 11.6211 4.00781C11.615 4.00297 11.6087 3.99794 11.6025 3.99316C11.5955 3.98771 11.5881 3.98193 11.5811 3.97656C11.5722 3.96984 11.5637 3.96265 11.5547 3.95605C11.5496 3.95231 11.5442 3.94901 11.5391 3.94531C11.5295 3.93837 11.5195 3.9316 11.5098 3.9248C11.5022 3.91955 11.4949 3.91337 11.4873 3.9082C11.4819 3.90449 11.4762 3.90112 11.4707 3.89746C11.4618 3.89151 11.4524 3.88571 11.4434 3.87988C11.4349 3.87439 11.4265 3.86867 11.418 3.86328C11.4119 3.85945 11.4055 3.85534 11.3994 3.85156C11.3933 3.84782 11.387 3.84451 11.3809 3.84082C11.3696 3.83403 11.3581 3.82691 11.3467 3.82031C11.3417 3.8174 11.3361 3.81439 11.3311 3.81152C11.3227 3.8068 11.314 3.8015 11.3057 3.79688C11.2971 3.79214 11.2879 3.78783 11.2793 3.7832C11.2708 3.77868 11.2624 3.77395 11.2539 3.76953C11.2488 3.76691 11.2434 3.76431 11.2383 3.76172C11.2266 3.75576 11.214 3.7499 11.2021 3.74414C11.195 3.74065 11.1879 3.73681 11.1807 3.7334C11.1738 3.73016 11.167 3.72681 11.1602 3.72363C11.1515 3.71962 11.1425 3.71582 11.1338 3.71191C11.123 3.70708 11.1115 3.70193 11.1006 3.69727C11.0961 3.69534 11.0915 3.69331 11.0869 3.69141C11.0731 3.68561 11.0589 3.67936 11.0449 3.67383C11.0418 3.67259 11.0383 3.67213 11.0352 3.6709C11.023 3.66613 11.0104 3.66081 10.998 3.65625C10.9942 3.65482 10.9902 3.65375 10.9863 3.65234C10.9721 3.64716 10.9577 3.64162 10.9434 3.63672C10.9403 3.63566 10.9367 3.63484 10.9336 3.63379C10.9191 3.62891 10.9043 3.62373 10.8896 3.61914C10.8852 3.61775 10.8804 3.6166 10.876 3.61523C10.8644 3.61167 10.8525 3.60787 10.8408 3.60449C10.8363 3.60319 10.8317 3.60186 10.8271 3.60059C10.8126 3.59648 10.7979 3.59269 10.7832 3.58887C10.7794 3.58788 10.7753 3.58691 10.7715 3.58594C10.7556 3.58189 10.7396 3.57793 10.7236 3.57422C10.722 3.57385 10.7204 3.57361 10.7188 3.57324C10.7029 3.56961 10.6869 3.5658 10.6709 3.5625C10.6691 3.56214 10.6668 3.56188 10.665 3.56152C10.6485 3.55816 10.6319 3.55476 10.6152 3.55176C10.6121 3.5512 10.6086 3.55035 10.6055 3.5498C10.5891 3.54692 10.5722 3.54452 10.5557 3.54199C10.5544 3.5418 10.553 3.54121 10.5518 3.54102C10.5363 3.53867 10.5205 3.53718 10.5049 3.53516C10.5019 3.53477 10.4991 3.53358 10.4961 3.5332C10.4803 3.53122 10.4641 3.52998 10.4482 3.52832C10.4438 3.52785 10.4391 3.52681 10.4346 3.52637C10.4204 3.52498 10.4058 3.52359 10.3916 3.52246C10.3861 3.52202 10.3805 3.52188 10.375 3.52148C10.3608 3.52046 10.3463 3.51932 10.332 3.51855C10.3285 3.51837 10.3248 3.51873 10.3213 3.51855C10.3051 3.51777 10.2887 3.51705 10.2725 3.5166C10.2689 3.5165 10.2653 3.51668 10.2617 3.5166C10.2442 3.5162 10.2266 3.51562 10.209 3.51562H3.51562V10.209C3.51562 10.2279 3.51614 10.2468 3.5166 10.2656C3.51672 10.2704 3.51645 10.2756 3.5166 10.2803C3.51703 10.2941 3.51788 10.3085 3.51855 10.3223C3.51896 10.3304 3.51905 10.3386 3.51953 10.3467C3.52011 10.3564 3.52078 10.3663 3.52148 10.376C3.52216 10.3853 3.52265 10.395 3.52344 10.4043C3.52419 10.4131 3.52552 10.4219 3.52637 10.4307C3.52726 10.4399 3.52829 10.4498 3.5293 10.459C3.53036 10.4688 3.53104 10.4786 3.53223 10.4883C3.53313 10.4956 3.53418 10.5034 3.53516 10.5107C3.53653 10.5211 3.53853 10.5317 3.54004 10.542C3.54126 10.5503 3.54264 10.5591 3.54395 10.5674C3.54548 10.5771 3.54717 10.587 3.54883 10.5967C3.55026 10.6051 3.5512 10.6137 3.55273 10.6221C3.55459 10.6322 3.5566 10.6423 3.55859 10.6523C3.56003 10.6596 3.56197 10.6676 3.56348 10.6748C3.56551 10.6846 3.56718 10.6944 3.56934 10.7041C3.57115 10.7123 3.57329 10.7204 3.5752 10.7285C3.57782 10.7397 3.58022 10.7516 3.58301 10.7627C3.58448 10.7686 3.58637 10.7744 3.58789 10.7803C3.59074 10.7913 3.59367 10.8025 3.59668 10.8135C3.59847 10.82 3.60069 10.8265 3.60254 10.833C3.61741 10.8852 3.6339 10.9367 3.65234 10.9873C3.65453 10.9933 3.65695 10.9999 3.65918 11.0059C3.66305 11.0162 3.66689 11.0269 3.6709 11.0371C3.67361 11.044 3.67692 11.0507 3.67969 11.0576C3.68362 11.0674 3.68734 11.0772 3.69141 11.0869C3.69468 11.0947 3.69781 11.1026 3.70117 11.1104C3.70428 11.1175 3.70775 11.1247 3.71094 11.1318C3.7151 11.1412 3.71935 11.1509 3.72363 11.1602C3.72723 11.168 3.73069 11.1758 3.73438 11.1836C3.73789 11.191 3.74152 11.1987 3.74512 11.2061C3.74954 11.2151 3.75425 11.2244 3.75879 11.2334C3.76194 11.2396 3.76535 11.2457 3.76855 11.252C3.773 11.2605 3.77768 11.2698 3.78223 11.2783C3.78639 11.2861 3.79067 11.294 3.79492 11.3018L3.82031 11.3467C3.82497 11.3547 3.83021 11.3631 3.83496 11.3711C3.83918 11.3782 3.84335 11.3855 3.84766 11.3926C3.85281 11.401 3.85803 11.4096 3.86328 11.418C3.86718 11.4242 3.87105 11.4304 3.875 11.4365C3.88166 11.4469 3.88869 11.4575 3.89551 11.4678C3.91405 11.4956 3.93341 11.5229 3.95312 11.5498C3.95692 11.555 3.961 11.5603 3.96484 11.5654C3.96899 11.571 3.97334 11.5765 3.97754 11.582C3.98428 11.5909 3.99118 11.5996 3.99805 11.6084C4.00277 11.6144 4.00694 11.621 4.01172 11.627C4.01716 11.6338 4.0228 11.6407 4.02832 11.6475C4.0355 11.6562 4.0425 11.6652 4.0498 11.6738C4.05319 11.6778 4.05713 11.6816 4.06055 11.6855C4.0683 11.6946 4.07609 11.704 4.08398 11.7129C4.08775 11.7172 4.09191 11.7214 4.0957 11.7256C4.10325 11.734 4.1105 11.7427 4.11816 11.751C4.12199 11.7551 4.12602 11.7596 4.12988 11.7637C4.13728 11.7716 4.14483 11.7793 4.15234 11.7871L4.20312 11.8379C4.21106 11.8456 4.21949 11.8537 4.22754 11.8613C4.2319 11.8654 4.23682 11.8699 4.24121 11.874C4.2496 11.8818 4.2581 11.8898 4.2666 11.8975C4.26878 11.8994 4.27125 11.9014 4.27344 11.9033C4.31685 11.9422 4.36189 11.9792 4.4082 12.0146C4.41347 12.0187 4.41853 12.0234 4.42383 12.0273C4.44795 12.0455 4.47319 12.0629 4.49805 12.0801C4.50156 12.0825 4.50526 12.0855 4.50879 12.0879C4.51897 12.0948 4.52974 12.1016 4.54004 12.1084L4.58105 12.1357C4.58611 12.1389 4.5916 12.1414 4.59668 12.1445C4.60605 12.1503 4.61554 12.1565 4.625 12.1621C4.6304 12.1653 4.63618 12.1687 4.6416 12.1719C4.65229 12.1781 4.66303 12.1843 4.67383 12.1904C4.67616 12.1917 4.6793 12.193 4.68164 12.1943C4.70889 12.2096 4.73672 12.2242 4.76465 12.2383C4.76816 12.2401 4.77187 12.2424 4.77539 12.2441C4.8625 12.2876 4.95287 12.3253 5.0459 12.3574C5.04755 12.358 5.04913 12.3588 5.05078 12.3594C5.08234 12.3702 5.11431 12.3802 5.14648 12.3896L5.14941 12.3906C5.16401 12.3949 5.17864 12.3993 5.19336 12.4033C5.19625 12.4041 5.19925 12.4045 5.20215 12.4053C5.21568 12.4089 5.22953 12.4127 5.24316 12.416C5.24672 12.4169 5.25034 12.4181 5.25391 12.4189C5.26738 12.4222 5.28135 12.4247 5.29492 12.4277C5.29854 12.4285 5.30204 12.4299 5.30566 12.4307C5.31954 12.4337 5.33368 12.4367 5.34766 12.4395C5.35021 12.44 5.35291 12.4399 5.35547 12.4404C5.37077 12.4434 5.38693 12.4466 5.40234 12.4492H5.40332C5.41999 12.4521 5.43731 12.4555 5.4541 12.458H5.45703C5.56533 12.4738 5.67637 12.4824 5.78906 12.4824H11.4102L6.54688 7.61816V10.9668H5.78906C5.37057 10.9668 5.03125 10.6275 5.03125 10.209V5.03125H10.209C10.6275 5.03125 10.9668 5.37057 10.9668 5.78906C10.9666 6.20742 10.6274 6.54688 10.209 6.54688H7.61816L15.0811 14L13.6436 13.998H5.78906C3.69658 13.998 2 12.3015 2 10.209V2H10.209Z" fill="#FF7A9C" style="fill:#FF7A9C;fill:color(display-p3 1.0000 0.4784 0.6118);fill-opacity:1;"/>
<path d="M10.209 2C12.3015 2 13.998 3.69658 13.998 5.78906V10.7832L11.0967 7.88184C11.9109 7.53604 12.4823 6.72936 12.4824 5.78906C12.4824 5.27195 12.3094 4.79504 12.0186 4.41309C12.0151 4.40857 12.0113 4.4039 12.0078 4.39941C11.9444 4.31741 11.8756 4.23954 11.8018 4.16699C11.7982 4.16349 11.7946 4.15973 11.791 4.15625C11.7705 4.13638 11.7498 4.11675 11.7285 4.09766C11.7237 4.09336 11.7187 4.08921 11.7139 4.08496C11.7031 4.07543 11.6916 4.06597 11.6807 4.05664C11.6768 4.05335 11.6728 4.05014 11.6689 4.04688C11.6581 4.03776 11.6468 4.02844 11.6357 4.01953C11.6309 4.0156 11.626 4.0117 11.6211 4.00781C11.615 4.00297 11.6087 3.99794 11.6025 3.99316C11.5955 3.98771 11.5881 3.98193 11.5811 3.97656C11.5722 3.96984 11.5637 3.96265 11.5547 3.95605C11.5496 3.95231 11.5442 3.94901 11.5391 3.94531C11.5295 3.93837 11.5195 3.9316 11.5098 3.9248C11.5022 3.91955 11.4949 3.91337 11.4873 3.9082C11.4819 3.90449 11.4762 3.90112 11.4707 3.89746C11.4618 3.89151 11.4524 3.88571 11.4434 3.87988C11.4349 3.87439 11.4265 3.86867 11.418 3.86328C11.4119 3.85945 11.4055 3.85534 11.3994 3.85156C11.3933 3.84782 11.387 3.84451 11.3809 3.84082C11.3696 3.83403 11.3581 3.82691 11.3467 3.82031C11.3417 3.8174 11.3361 3.81439 11.3311 3.81152C11.3227 3.8068 11.314 3.8015 11.3057 3.79688C11.2971 3.79214 11.2879 3.78783 11.2793 3.7832C11.2708 3.77868 11.2624 3.77395 11.2539 3.76953C11.2488 3.76691 11.2434 3.76431 11.2383 3.76172C11.2266 3.75576 11.214 3.7499 11.2021 3.74414C11.195 3.74065 11.1879 3.73681 11.1807 3.7334C11.1738 3.73016 11.167 3.72681 11.1602 3.72363C11.1515 3.71962 11.1425 3.71582 11.1338 3.71191C11.123 3.70708 11.1115 3.70193 11.1006 3.69727C11.0961 3.69534 11.0915 3.69331 11.0869 3.69141C11.0731 3.68561 11.0589 3.67936 11.0449 3.67383C11.0418 3.67259 11.0383 3.67213 11.0352 3.6709C11.023 3.66613 11.0104 3.66081 10.998 3.65625C10.9942 3.65482 10.9902 3.65375 10.9863 3.65234C10.9721 3.64716 10.9577 3.64162 10.9434 3.63672C10.9403 3.63566 10.9367 3.63484 10.9336 3.63379C10.9191 3.62891 10.9043 3.62373 10.8896 3.61914C10.8852 3.61775 10.8804 3.6166 10.876 3.61523C10.8644 3.61167 10.8525 3.60787 10.8408 3.60449C10.8363 3.60319 10.8317 3.60186 10.8271 3.60059C10.8126 3.59648 10.7979 3.59269 10.7832 3.58887C10.7794 3.58788 10.7753 3.58691 10.7715 3.58594C10.7556 3.58189 10.7396 3.57793 10.7236 3.57422C10.722 3.57385 10.7204 3.57361 10.7188 3.57324C10.7029 3.56961 10.6869 3.5658 10.6709 3.5625C10.6691 3.56214 10.6668 3.56188 10.665 3.56152C10.6485 3.55816 10.6319 3.55476 10.6152 3.55176C10.6121 3.5512 10.6086 3.55035 10.6055 3.5498C10.5891 3.54692 10.5722 3.54452 10.5557 3.54199C10.5544 3.5418 10.553 3.54121 10.5518 3.54102C10.5363 3.53867 10.5205 3.53718 10.5049 3.53516C10.5019 3.53477 10.4991 3.53358 10.4961 3.5332C10.4803 3.53122 10.4641 3.52998 10.4482 3.52832C10.4438 3.52785 10.4391 3.52681 10.4346 3.52637C10.4204 3.52498 10.4058 3.52359 10.3916 3.52246C10.3861 3.52202 10.3805 3.52188 10.375 3.52148C10.3608 3.52046 10.3463 3.51932 10.332 3.51855C10.3285 3.51837 10.3248 3.51873 10.3213 3.51855C10.3051 3.51777 10.2887 3.51705 10.2725 3.5166C10.2689 3.5165 10.2653 3.51668 10.2617 3.5166C10.2442 3.5162 10.2266 3.51562 10.209 3.51562H3.51562V10.209C3.51562 10.2279 3.51614 10.2468 3.5166 10.2656C3.51672 10.2704 3.51645 10.2756 3.5166 10.2803C3.51703 10.2941 3.51788 10.3085 3.51855 10.3223C3.51896 10.3304 3.51905 10.3386 3.51953 10.3467C3.52011 10.3564 3.52078 10.3663 3.52148 10.376C3.52216 10.3853 3.52265 10.395 3.52344 10.4043C3.52419 10.4131 3.52552 10.4219 3.52637 10.4307C3.52726 10.4399 3.52829 10.4498 3.5293 10.459C3.53036 10.4688 3.53104 10.4786 3.53223 10.4883C3.53313 10.4956 3.53418 10.5034 3.53516 10.5107C3.53653 10.5211 3.53853 10.5317 3.54004 10.542C3.54126 10.5503 3.54264 10.5591 3.54395 10.5674C3.54548 10.5771 3.54717 10.587 3.54883 10.5967C3.55026 10.6051 3.5512 10.6137 3.55273 10.6221C3.55459 10.6322 3.5566 10.6423 3.55859 10.6523C3.56003 10.6596 3.56197 10.6676 3.56348 10.6748C3.56551 10.6846 3.56718 10.6944 3.56934 10.7041C3.57115 10.7123 3.57329 10.7204 3.5752 10.7285C3.57782 10.7397 3.58022 10.7516 3.58301 10.7627C3.58448 10.7686 3.58637 10.7744 3.58789 10.7803C3.59074 10.7913 3.59367 10.8025 3.59668 10.8135C3.59847 10.82 3.60069 10.8265 3.60254 10.833C3.61741 10.8852 3.6339 10.9367 3.65234 10.9873C3.65453 10.9933 3.65695 10.9999 3.65918 11.0059C3.66305 11.0162 3.66689 11.0269 3.6709 11.0371C3.67361 11.044 3.67692 11.0507 3.67969 11.0576C3.68362 11.0674 3.68734 11.0772 3.69141 11.0869C3.69468 11.0947 3.69781 11.1026 3.70117 11.1104C3.70428 11.1175 3.70775 11.1247 3.71094 11.1318C3.7151 11.1412 3.71935 11.1509 3.72363 11.1602C3.72723 11.168 3.73069 11.1758 3.73438 11.1836C3.73789 11.191 3.74152 11.1987 3.74512 11.2061C3.74954 11.2151 3.75425 11.2244 3.75879 11.2334C3.76194 11.2396 3.76535 11.2457 3.76855 11.252C3.773 11.2605 3.77768 11.2698 3.78223 11.2783C3.78639 11.2861 3.79067 11.294 3.79492 11.3018L3.82031 11.3467C3.82497 11.3547 3.83021 11.3631 3.83496 11.3711C3.83918 11.3782 3.84335 11.3855 3.84766 11.3926C3.85281 11.401 3.85803 11.4096 3.86328 11.418C3.86718 11.4242 3.87105 11.4304 3.875 11.4365C3.88166 11.4469 3.88869 11.4575 3.89551 11.4678C3.91405 11.4956 3.93341 11.5229 3.95312 11.5498C3.95692 11.555 3.961 11.5603 3.96484 11.5654C3.96899 11.571 3.97334 11.5765 3.97754 11.582C3.98428 11.5909 3.99118 11.5996 3.99805 11.6084C4.00277 11.6144 4.00694 11.621 4.01172 11.627C4.01716 11.6338 4.0228 11.6407 4.02832 11.6475C4.0355 11.6562 4.0425 11.6652 4.0498 11.6738C4.05319 11.6778 4.05713 11.6816 4.06055 11.6855C4.0683 11.6946 4.07609 11.704 4.08398 11.7129C4.08775 11.7172 4.09191 11.7214 4.0957 11.7256C4.10325 11.734 4.1105 11.7427 4.11816 11.751C4.12199 11.7551 4.12602 11.7596 4.12988 11.7637C4.13728 11.7716 4.14483 11.7793 4.15234 11.7871L4.20312 11.8379C4.21106 11.8456 4.21949 11.8537 4.22754 11.8613C4.2319 11.8654 4.23682 11.8699 4.24121 11.874C4.2496 11.8818 4.2581 11.8898 4.2666 11.8975C4.26878 11.8994 4.27125 11.9014 4.27344 11.9033C4.31685 11.9422 4.36189 11.9792 4.4082 12.0146C4.41347 12.0187 4.41853 12.0234 4.42383 12.0273C4.44795 12.0455 4.47319 12.0629 4.49805 12.0801C4.50156 12.0825 4.50526 12.0855 4.50879 12.0879C4.51897 12.0948 4.52974 12.1016 4.54004 12.1084L4.58105 12.1357C4.58611 12.1389 4.5916 12.1414 4.59668 12.1445C4.60605 12.1503 4.61554 12.1565 4.625 12.1621C4.6304 12.1653 4.63618 12.1687 4.6416 12.1719C4.65229 12.1781 4.66303 12.1843 4.67383 12.1904C4.67616 12.1917 4.6793 12.193 4.68164 12.1943C4.70889 12.2096 4.73672 12.2242 4.76465 12.2383C4.76816 12.2401 4.77187 12.2424 4.77539 12.2441C4.8625 12.2876 4.95287 12.3253 5.0459 12.3574C5.04755 12.358 5.04913 12.3588 5.05078 12.3594C5.08234 12.3702 5.11431 12.3802 5.14648 12.3896L5.14941 12.3906C5.16401 12.3949 5.17864 12.3993 5.19336 12.4033C5.19625 12.4041 5.19925 12.4045 5.20215 12.4053C5.21568 12.4089 5.22953 12.4127 5.24316 12.416C5.24672 12.4169 5.25034 12.4181 5.25391 12.4189C5.26738 12.4222 5.28135 12.4247 5.29492 12.4277C5.29854 12.4285 5.30204 12.4299 5.30566 12.4307C5.31954 12.4337 5.33368 12.4367 5.34766 12.4395C5.35021 12.44 5.35291 12.4399 5.35547 12.4404C5.37077 12.4434 5.38693 12.4466 5.40234 12.4492H5.40332C5.41999 12.4521 5.43731 12.4555 5.4541 12.458H5.45703C5.56533 12.4738 5.67637 12.4824 5.78906 12.4824H11.4102L6.54688 7.61816V10.9668H5.78906C5.37057 10.9668 5.03125 10.6275 5.03125 10.209V5.03125H10.209C10.6275 5.03125 10.9668 5.37057 10.9668 5.78906C10.9666 6.20742 10.6274 6.54688 10.209 6.54688H7.61816L15.0811 14L13.6436 13.998H5.78906C3.69658 13.998 2 12.3015 2 10.209V2H10.209Z" fill="#EC4899" style="fill:#EC4899;fill:color(display-p3 0.9255 0.2824 0.6000);fill-opacity:1;"/>
<path d="M10.209 2C12.3015 2 13.998 3.69658 13.998 5.78906V10.7832L11.0967 7.88184C11.9109 7.53604 12.4823 6.72936 12.4824 5.78906C12.4824 5.27195 12.3094 4.79504 12.0186 4.41309C12.0151 4.40857 12.0113 4.4039 12.0078 4.39941C11.9444 4.31741 11.8756 4.23954 11.8018 4.16699C11.7982 4.16349 11.7946 4.15973 11.791 4.15625C11.7705 4.13638 11.7498 4.11675 11.7285 4.09766C11.7237 4.09336 11.7187 4.08921 11.7139 4.08496C11.7031 4.07543 11.6916 4.06597 11.6807 4.05664C11.6768 4.05335 11.6728 4.05014 11.6689 4.04688C11.6581 4.03776 11.6468 4.02844 11.6357 4.01953C11.6309 4.0156 11.626 4.0117 11.6211 4.00781C11.615 4.00297 11.6087 3.99794 11.6025 3.99316C11.5955 3.98771 11.5881 3.98193 11.5811 3.97656C11.5722 3.96984 11.5637 3.96265 11.5547 3.95605C11.5496 3.95231 11.5442 3.94901 11.5391 3.94531C11.5295 3.93837 11.5195 3.9316 11.5098 3.9248C11.5022 3.91955 11.4949 3.91337 11.4873 3.9082C11.4819 3.90449 11.4762 3.90112 11.4707 3.89746C11.4618 3.89151 11.4524 3.88571 11.4434 3.87988C11.4349 3.87439 11.4265 3.86867 11.418 3.86328C11.4119 3.85945 11.4055 3.85534 11.3994 3.85156C11.3933 3.84782 11.387 3.84451 11.3809 3.84082C11.3696 3.83403 11.3581 3.82691 11.3467 3.82031C11.3417 3.8174 11.3361 3.81439 11.3311 3.81152C11.3227 3.8068 11.314 3.8015 11.3057 3.79688C11.2971 3.79214 11.2879 3.78783 11.2793 3.7832C11.2708 3.77868 11.2624 3.77395 11.2539 3.76953C11.2488 3.76691 11.2434 3.76431 11.2383 3.76172C11.2266 3.75576 11.214 3.7499 11.2021 3.74414C11.195 3.74065 11.1879 3.73681 11.1807 3.7334C11.1738 3.73016 11.167 3.72681 11.1602 3.72363C11.1515 3.71962 11.1425 3.71582 11.1338 3.71191C11.123 3.70708 11.1115 3.70193 11.1006 3.69727C11.0961 3.69534 11.0915 3.69331 11.0869 3.69141C11.0731 3.68561 11.0589 3.67936 11.0449 3.67383C11.0418 3.67259 11.0383 3.67213 11.0352 3.6709C11.023 3.66613 11.0104 3.66081 10.998 3.65625C10.9942 3.65482 10.9902 3.65375 10.9863 3.65234C10.9721 3.64716 10.9577 3.64162 10.9434 3.63672C10.9403 3.63566 10.9367 3.63484 10.9336 3.63379C10.9191 3.62891 10.9043 3.62373 10.8896 3.61914C10.8852 3.61775 10.8804 3.6166 10.876 3.61523C10.8644 3.61167 10.8525 3.60787 10.8408 3.60449C10.8363 3.60319 10.8317 3.60186 10.8271 3.60059C10.8126 3.59648 10.7979 3.59269 10.7832 3.58887C10.7794 3.58788 10.7753 3.58691 10.7715 3.58594C10.7556 3.58189 10.7396 3.57793 10.7236 3.57422C10.722 3.57385 10.7204 3.57361 10.7188 3.57324C10.7029 3.56961 10.6869 3.5658 10.6709 3.5625C10.6691 3.56214 10.6668 3.56188 10.665 3.56152C10.6485 3.55816 10.6319 3.55476 10.6152 3.55176C10.6121 3.5512 10.6086 3.55035 10.6055 3.5498C10.5891 3.54692 10.5722 3.54452 10.5557 3.54199C10.5544 3.5418 10.553 3.54121 10.5518 3.54102C10.5363 3.53867 10.5205 3.53718 10.5049 3.53516C10.5019 3.53477 10.4991 3.53358 10.4961 3.5332C10.4803 3.53122 10.4641 3.52998 10.4482 3.52832C10.4438 3.52785 10.4391 3.52681 10.4346 3.52637C10.4204 3.52498 10.4058 3.52359 10.3916 3.52246C10.3861 3.52202 10.3805 3.52188 10.375 3.52148C10.3608 3.52046 10.3463 3.51932 10.332 3.51855C10.3285 3.51837 10.3248 3.51873 10.3213 3.51855C10.3051 3.51777 10.2887 3.51705 10.2725 3.5166C10.2689 3.5165 10.2653 3.51668 10.2617 3.5166C10.2442 3.5162 10.2266 3.51562 10.209 3.51562H3.51562V10.209C3.51562 10.2279 3.51614 10.2468 3.5166 10.2656C3.51672 10.2704 3.51645 10.2756 3.5166 10.2803C3.51703 10.2941 3.51788 10.3085 3.51855 10.3223C3.51896 10.3304 3.51905 10.3386 3.51953 10.3467C3.52011 10.3564 3.52078 10.3663 3.52148 10.376C3.52216 10.3853 3.52265 10.395 3.52344 10.4043C3.52419 10.4131 3.52552 10.4219 3.52637 10.4307C3.52726 10.4399 3.52829 10.4498 3.5293 10.459C3.53036 10.4688 3.53104 10.4786 3.53223 10.4883C3.53313 10.4956 3.53418 10.5034 3.53516 10.5107C3.53653 10.5211 3.53853 10.5317 3.54004 10.542C3.54126 10.5503 3.54264 10.5591 3.54395 10.5674C3.54548 10.5771 3.54717 10.587 3.54883 10.5967C3.55026 10.6051 3.5512 10.6137 3.55273 10.6221C3.55459 10.6322 3.5566 10.6423 3.55859 10.6523C3.56003 10.6596 3.56197 10.6676 3.56348 10.6748C3.56551 10.6846 3.56718 10.6944 3.56934 10.7041C3.57115 10.7123 3.57329 10.7204 3.5752 10.7285C3.57782 10.7397 3.58022 10.7516 3.58301 10.7627C3.58448 10.7686 3.58637 10.7744 3.58789 10.7803C3.59074 10.7913 3.59367 10.8025 3.59668 10.8135C3.59847 10.82 3.60069 10.8265 3.60254 10.833C3.61741 10.8852 3.6339 10.9367 3.65234 10.9873C3.65453 10.9933 3.65695 10.9999 3.65918 11.0059C3.66305 11.0162 3.66689 11.0269 3.6709 11.0371C3.67361 11.044 3.67692 11.0507 3.67969 11.0576C3.68362 11.0674 3.68734 11.0772 3.69141 11.0869C3.69468 11.0947 3.69781 11.1026 3.70117 11.1104C3.70428 11.1175 3.70775 11.1247 3.71094 11.1318C3.7151 11.1412 3.71935 11.1509 3.72363 11.1602C3.72723 11.168 3.73069 11.1758 3.73438 11.1836C3.73789 11.191 3.74152 11.1987 3.74512 11.2061C3.74954 11.2151 3.75425 11.2244 3.75879 11.2334C3.76194 11.2396 3.76535 11.2457 3.76855 11.252C3.773 11.2605 3.77768 11.2698 3.78223 11.2783C3.78639 11.2861 3.79067 11.294 3.79492 11.3018L3.82031 11.3467C3.82497 11.3547 3.83021 11.3631 3.83496 11.3711C3.83918 11.3782 3.84335 11.3855 3.84766 11.3926C3.85281 11.401 3.85803 11.4096 3.86328 11.418C3.86718 11.4242 3.87105 11.4304 3.875 11.4365C3.88166 11.4469 3.88869 11.4575 3.89551 11.4678C3.91405 11.4956 3.93341 11.5229 3.95312 11.5498C3.95692 11.555 3.961 11.5603 3.96484 11.5654C3.96899 11.571 3.97334 11.5765 3.97754 11.582C3.98428 11.5909 3.99118 11.5996 3.99805 11.6084C4.00277 11.6144 4.00694 11.621 4.01172 11.627C4.01716 11.6338 4.0228 11.6407 4.02832 11.6475C4.0355 11.6562 4.0425 11.6652 4.0498 11.6738C4.05319 11.6778 4.05713 11.6816 4.06055 11.6855C4.0683 11.6946 4.07609 11.704 4.08398 11.7129C4.08775 11.7172 4.09191 11.7214 4.0957 11.7256C4.10325 11.734 4.1105 11.7427 4.11816 11.751C4.12199 11.7551 4.12602 11.7596 4.12988 11.7637C4.13728 11.7716 4.14483 11.7793 4.15234 11.7871L4.20312 11.8379C4.21106 11.8456 4.21949 11.8537 4.22754 11.8613C4.2319 11.8654 4.23682 11.8699 4.24121 11.874C4.2496 11.8818 4.2581 11.8898 4.2666 11.8975C4.26878 11.8994 4.27125 11.9014 4.27344 11.9033C4.31685 11.9422 4.36189 11.9792 4.4082 12.0146C4.41347 12.0187 4.41853 12.0234 4.42383 12.0273C4.44795 12.0455 4.47319 12.0629 4.49805 12.0801C4.50156 12.0825 4.50526 12.0855 4.50879 12.0879C4.51897 12.0948 4.52974 12.1016 4.54004 12.1084L4.58105 12.1357C4.58611 12.1389 4.5916 12.1414 4.59668 12.1445C4.60605 12.1503 4.61554 12.1565 4.625 12.1621C4.6304 12.1653 4.63618 12.1687 4.6416 12.1719C4.65229 12.1781 4.66303 12.1843 4.67383 12.1904C4.67616 12.1917 4.6793 12.193 4.68164 12.1943C4.70889 12.2096 4.73672 12.2242 4.76465 12.2383C4.76816 12.2401 4.77187 12.2424 4.77539 12.2441C4.8625 12.2876 4.95287 12.3253 5.0459 12.3574C5.04755 12.358 5.04913 12.3588 5.05078 12.3594C5.08234 12.3702 5.11431 12.3802 5.14648 12.3896L5.14941 12.3906C5.16401 12.3949 5.17864 12.3993 5.19336 12.4033C5.19625 12.4041 5.19925 12.4045 5.20215 12.4053C5.21568 12.4089 5.22953 12.4127 5.24316 12.416C5.24672 12.4169 5.25034 12.4181 5.25391 12.4189C5.26738 12.4222 5.28135 12.4247 5.29492 12.4277C5.29854 12.4285 5.30204 12.4299 5.30566 12.4307C5.31954 12.4337 5.33368 12.4367 5.34766 12.4395C5.35021 12.44 5.35291 12.4399 5.35547 12.4404C5.37077 12.4434 5.38693 12.4466 5.40234 12.4492H5.40332C5.41999 12.4521 5.43731 12.4555 5.4541 12.458H5.45703C5.56533 12.4738 5.67637 12.4824 5.78906 12.4824H11.4102L6.54688 7.61816V10.9668H5.78906C5.37057 10.9668 5.03125 10.6275 5.03125 10.209V5.03125H10.209C10.6275 5.03125 10.9668 5.37057 10.9668 5.78906C10.9666 6.20742 10.6274 6.54688 10.209 6.54688H7.61816L15.0811 14L13.6436 13.998H5.78906C3.69658 13.998 2 12.3015 2 10.209V2H10.209Z" fill="#10B981" style="fill:#10B981;fill:color(display-p3 0.0627 0.7255 0.5059);fill-opacity:1;"/>
<path d="M10.209 2C12.3015 2 13.998 3.69658 13.998 5.78906V10.7832L11.0967 7.88184C11.9109 7.53604 12.4823 6.72936 12.4824 5.78906C12.4824 5.27195 12.3094 4.79504 12.0186 4.41309C12.0151 4.40857 12.0113 4.4039 12.0078 4.39941C11.9444 4.31741 11.8756 4.23954 11.8018 4.16699C11.7982 4.16349 11.7946 4.15973 11.791 4.15625C11.7705 4.13638 11.7498 4.11675 11.7285 4.09766C11.7237 4.09336 11.7187 4.08921 11.7139 4.08496C11.7031 4.07543 11.6916 4.06597 11.6807 4.05664C11.6768 4.05335 11.6728 4.05014 11.6689 4.04688C11.6581 4.03776 11.6468 4.02844 11.6357 4.01953C11.6309 4.0156 11.626 4.0117 11.6211 4.00781C11.615 4.00297 11.6087 3.99794 11.6025 3.99316C11.5955 3.98771 11.5881 3.98193 11.5811 3.97656C11.5722 3.96984 11.5637 3.96265 11.5547 3.95605C11.5496 3.95231 11.5442 3.94901 11.5391 3.94531C11.5295 3.93837 11.5195 3.9316 11.5098 3.9248C11.5022 3.91955 11.4949 3.91337 11.4873 3.9082C11.4819 3.90449 11.4762 3.90112 11.4707 3.89746C11.4618 3.89151 11.4524 3.88571 11.4434 3.87988C11.4349 3.87439 11.4265 3.86867 11.418 3.86328C11.4119 3.85945 11.4055 3.85534 11.3994 3.85156C11.3933 3.84782 11.387 3.84451 11.3809 3.84082C11.3696 3.83403 11.3581 3.82691 11.3467 3.82031C11.3417 3.8174 11.3361 3.81439 11.3311 3.81152C11.3227 3.8068 11.314 3.8015 11.3057 3.79688C11.2971 3.79214 11.2879 3.78783 11.2793 3.7832C11.2708 3.77868 11.2624 3.77395 11.2539 3.76953C11.2488 3.76691 11.2434 3.76431 11.2383 3.76172C11.2266 3.75576 11.214 3.7499 11.2021 3.74414C11.195 3.74065 11.1879 3.73681 11.1807 3.7334C11.1738 3.73016 11.167 3.72681 11.1602 3.72363C11.1515 3.71962 11.1425 3.71582 11.1338 3.71191C11.123 3.70708 11.1115 3.70193 11.1006 3.69727C11.0961 3.69534 11.0915 3.69331 11.0869 3.69141C11.0731 3.68561 11.0589 3.67936 11.0449 3.67383C11.0418 3.67259 11.0383 3.67213 11.0352 3.6709C11.023 3.66613 11.0104 3.66081 10.998 3.65625C10.9942 3.65482 10.9902 3.65375 10.9863 3.65234C10.9721 3.64716 10.9577 3.64162 10.9434 3.63672C10.9403 3.63566 10.9367 3.63484 10.9336 3.63379C10.9191 3.62891 10.9043 3.62373 10.8896 3.61914C10.8852 3.61775 10.8804 3.6166 10.876 3.61523C10.8644 3.61167 10.8525 3.60787 10.8408 3.60449C10.8363 3.60319 10.8317 3.60186 10.8271 3.60059C10.8126 3.59648 10.7979 3.59269 10.7832 3.58887C10.7794 3.58788 10.7753 3.58691 10.7715 3.58594C10.7556 3.58189 10.7396 3.57793 10.7236 3.57422C10.722 3.57385 10.7204 3.57361 10.7188 3.57324C10.7029 3.56961 10.6869 3.5658 10.6709 3.5625C10.6691 3.56214 10.6668 3.56188 10.665 3.56152C10.6485 3.55816 10.6319 3.55476 10.6152 3.55176C10.6121 3.5512 10.6086 3.55035 10.6055 3.5498C10.5891 3.54692 10.5722 3.54452 10.5557 3.54199C10.5544 3.5418 10.553 3.54121 10.5518 3.54102C10.5363 3.53867 10.5205 3.53718 10.5049 3.53516C10.5019 3.53477 10.4991 3.53358 10.4961 3.5332C10.4803 3.53122 10.4641 3.52998 10.4482 3.52832C10.4438 3.52785 10.4391 3.52681 10.4346 3.52637C10.4204 3.52498 10.4058 3.52359 10.3916 3.52246C10.3861 3.52202 10.3805 3.52188 10.375 3.52148C10.3608 3.52046 10.3463 3.51932 10.332 3.51855C10.3285 3.51837 10.3248 3.51873 10.3213 3.51855C10.3051 3.51777 10.2887 3.51705 10.2725 3.5166C10.2689 3.5165 10.2653 3.51668 10.2617 3.5166C10.2442 3.5162 10.2266 3.51562 10.209 3.51562H3.51562V10.209C3.51562 10.2279 3.51614 10.2468 3.5166 10.2656C3.51672 10.2704 3.51645 10.2756 3.5166 10.2803C3.51703 10.2941 3.51788 10.3085 3.51855 10.3223C3.51896 10.3304 3.51905 10.3386 3.51953 10.3467C3.52011 10.3564 3.52078 10.3663 3.52148 10.376C3.52216 10.3853 3.52265 10.395 3.52344 10.4043C3.52419 10.4131 3.52552 10.4219 3.52637 10.4307C3.52726 10.4399 3.52829 10.4498 3.5293 10.459C3.53036 10.4688 3.53104 10.4786 3.53223 10.4883C3.53313 10.4956 3.53418 10.5034 3.53516 10.5107C3.53653 10.5211 3.53853 10.5317 3.54004 10.542C3.54126 10.5503 3.54264 10.5591 3.54395 10.5674C3.54548 10.5771 3.54717 10.587 3.54883 10.5967C3.55026 10.6051 3.5512 10.6137 3.55273 10.6221C3.55459 10.6322 3.5566 10.6423 3.55859 10.6523C3.56003 10.6596 3.56197 10.6676 3.56348 10.6748C3.56551 10.6846 3.56718 10.6944 3.56934 10.7041C3.57115 10.7123 3.57329 10.7204 3.5752 10.7285C3.57782 10.7397 3.58022 10.7516 3.58301 10.7627C3.58448 10.7686 3.58637 10.7744 3.58789 10.7803C3.59074 10.7913 3.59367 10.8025 3.59668 10.8135C3.59847 10.82 3.60069 10.8265 3.60254 10.833C3.61741 10.8852 3.6339 10.9367 3.65234 10.9873C3.65453 10.9933 3.65695 10.9999 3.65918 11.0059C3.66305 11.0162 3.66689 11.0269 3.6709 11.0371C3.67361 11.044 3.67692 11.0507 3.67969 11.0576C3.68362 11.0674 3.68734 11.0772 3.69141 11.0869C3.69468 11.0947 3.69781 11.1026 3.70117 11.1104C3.70428 11.1175 3.70775 11.1247 3.71094 11.1318C3.7151 11.1412 3.71935 11.1509 3.72363 11.1602C3.72723 11.168 3.73069 11.1758 3.73438 11.1836C3.73789 11.191 3.74152 11.1987 3.74512 11.2061C3.74954 11.2151 3.75425 11.2244 3.75879 11.2334C3.76194 11.2396 3.76535 11.2457 3.76855 11.252C3.773 11.2605 3.77768 11.2698 3.78223 11.2783C3.78639 11.2861 3.79067 11.294 3.79492 11.3018L3.82031 11.3467C3.82497 11.3547 3.83021 11.3631 3.83496 11.3711C3.83918 11.3782 3.84335 11.3855 3.84766 11.3926C3.85281 11.401 3.85803 11.4096 3.86328 11.418C3.86718 11.4242 3.87105 11.4304 3.875 11.4365C3.88166 11.4469 3.88869 11.4575 3.89551 11.4678C3.91405 11.4956 3.93341 11.5229 3.95312 11.5498C3.95692 11.555 3.961 11.5603 3.96484 11.5654C3.96899 11.571 3.97334 11.5765 3.97754 11.582C3.98428 11.5909 3.99118 11.5996 3.99805 11.6084C4.00277 11.6144 4.00694 11.621 4.01172 11.627C4.01716 11.6338 4.0228 11.6407 4.02832 11.6475C4.0355 11.6562 4.0425 11.6652 4.0498 11.6738C4.05319 11.6778 4.05713 11.6816 4.06055 11.6855C4.0683 11.6946 4.07609 11.704 4.08398 11.7129C4.08775 11.7172 4.09191 11.7214 4.0957 11.7256C4.10325 11.734 4.1105 11.7427 4.11816 11.751C4.12199 11.7551 4.12602 11.7596 4.12988 11.7637C4.13728 11.7716 4.14483 11.7793 4.15234 11.7871L4.20312 11.8379C4.21106 11.8456 4.21949 11.8537 4.22754 11.8613C4.2319 11.8654 4.23682 11.8699 4.24121 11.874C4.2496 11.8818 4.2581 11.8898 4.2666 11.8975C4.26878 11.8994 4.27125 11.9014 4.27344 11.9033C4.31685 11.9422 4.36189 11.9792 4.4082 12.0146C4.41347 12.0187 4.41853 12.0234 4.42383 12.0273C4.44795 12.0455 4.47319 12.0629 4.49805 12.0801C4.50156 12.0825 4.50526 12.0855 4.50879 12.0879C4.51897 12.0948 4.52974 12.1016 4.54004 12.1084L4.58105 12.1357C4.58611 12.1389 4.5916 12.1414 4.59668 12.1445C4.60605 12.1503 4.61554 12.1565 4.625 12.1621C4.6304 12.1653 4.63618 12.1687 4.6416 12.1719C4.65229 12.1781 4.66303 12.1843 4.67383 12.1904C4.67616 12.1917 4.6793 12.193 4.68164 12.1943C4.70889 12.2096 4.73672 12.2242 4.76465 12.2383C4.76816 12.2401 4.77187 12.2424 4.77539 12.2441C4.8625 12.2876 4.95287 12.3253 5.0459 12.3574C5.04755 12.358 5.04913 12.3588 5.05078 12.3594C5.08234 12.3702 5.11431 12.3802 5.14648 12.3896L5.14941 12.3906C5.16401 12.3949 5.17864 12.3993 5.19336 12.4033C5.19625 12.4041 5.19925 12.4045 5.20215 12.4053C5.21568 12.4089 5.22953 12.4127 5.24316 12.416C5.24672 12.4169 5.25034 12.4181 5.25391 12.4189C5.26738 12.4222 5.28135 12.4247 5.29492 12.4277C5.29854 12.4285 5.30204 12.4299 5.30566 12.4307C5.31954 12.4337 5.33368 12.4367 5.34766 12.4395C5.35021 12.44 5.35291 12.4399 5.35547 12.4404C5.37077 12.4434 5.38693 12.4466 5.40234 12.4492H5.40332C5.41999 12.4521 5.43731 12.4555 5.4541 12.458H5.45703C5.56533 12.4738 5.67637 12.4824 5.78906 12.4824H11.4102L6.54688 7.61816V10.9668H5.78906C5.37057 10.9668 5.03125 10.6275 5.03125 10.209V5.03125H10.209C10.6275 5.03125 10.9668 5.37057 10.9668 5.78906C10.9666 6.20742 10.6274 6.54688 10.209 6.54688H7.61816L15.0811 14L13.6436 13.998H5.78906C3.69658 13.998 2 12.3015 2 10.209V2H10.209Z" fill="#38BDF8" style="fill:#38BDF8;fill:color(display-p3 0.2196 0.7412 0.9725);fill-opacity:1;"/>
</g>
<defs>
<clipPath id="clip0_4699_310">
<rect width="16" height="16" fill="white" style="fill:white;fill-opacity:1;"/>
</clipPath>
</defs>
</svg>
