<svg viewBox="0 0 42 42" xmlns="http://www.w3.org/2000/svg">
	<path
		d="M27.553 3.212c6.205 0 11.235 5.03 11.235 11.235v14.809l-8.602-8.602a6.743 6.743 0 0 0 2.734-10.287l-.031-.04a7 7 0 0 0-.612-.69l-.032-.03a7 7 0 0 0-.327-.298l-.035-.03-.143-.115-.054-.043-.063-.049-.08-.059-.045-.033-.154-.108-.05-.034-.08-.053-.076-.048q-.027-.016-.054-.034l-.056-.034-.102-.06q-.023-.014-.047-.026l-.075-.043-.076-.042-.077-.04-.046-.024-.105-.052-.064-.03-.063-.03-.077-.035-.097-.043-.042-.017-.123-.05-.03-.011q-.054-.023-.11-.043l-.036-.013q-.064-.023-.127-.045l-.03-.01-.13-.042-.04-.013-.105-.03-.17-.047-.034-.01-.142-.033-.015-.004-.142-.032-.016-.002-.148-.029-.029-.005-.148-.024-.011-.002-.14-.02-.028-.003-.141-.016-.041-.005-.125-.011-.05-.004-.127-.008h-.032l-.145-.006-.031-.001-.158-.003H7.705v19.848l.004.212q.001.062.005.123l.004.073.005.087.007.084.007.08.01.082q.004.045.01.089l.007.067.014.091.012.074.013.087.014.076.017.091.032.152.017.074.024.099.014.055.026.097.016.058q.066.233.149.459l.02.053q.016.045.035.091l.025.063.065.156.027.064q.019.042.039.083.014.035.032.07.014.033.032.066l.04.08.029.059.04.075.039.07.036.067.039.067.042.072.038.064.047.075.036.055.059.092q.083.124.172.245l.033.046.038.05.06.078.042.053.05.06q.03.04.064.08l.03.035.07.08.137.151.067.07.046.046.065.066.04.04.07.068.04.036q.038.036.077.07l.02.019q.194.173.4.33l.047.037q.107.08.218.157l.032.022.093.062.035.023.088.057.046.028.084.05.049.029.096.057.02.011q.123.07.247.131l.032.016q.389.194.803.338l.015.005q.142.049.285.09l.007.003.13.036.027.007.12.03.034.009q.06.015.12.028l.034.007.124.026.024.005.136.025h.005q.075.013.15.024l.007.002q.483.071.986.072h16.67L16.693 19.87v9.93h-2.246a2.247 2.247 0 0 1-2.247-2.248V12.2h15.353a2.247 2.247 0 1 1 0 4.493h-7.682L42 38.795l-4.262-.007H14.447c-6.205 0-11.235-5.03-11.235-11.235V3.212z"
	/>
</svg>
