<svg width="16" height="16" viewBox="0 0 16 16" fill="none" xmlns="http://www.w3.org/2000/svg">
<g clip-path="url(#clip0_4699_310)">
<path d="M0 0H10.5C13.5376 0 16 2.46243 16 5.5V16H5.5C2.46243 16 0 13.5376 0 10.5V0Z" fill="#1E1E1E" style="fill:#1E1E1E;fill:color(display-p3 0.1176 0.1176 0.1176);fill-opacity:1;"/>
<path d="M10.2109 2C12.3035 2.00022 13.9998 3.69652 14 5.78906V10.7842L11.0986 7.88281C11.913 7.53689 12.4844 6.72962 12.4844 5.78906C12.4843 5.27199 12.3113 4.79501 12.0205 4.41309C12.0172 4.40868 12.0132 4.40477 12.0098 4.40039C11.9463 4.31836 11.8776 4.24054 11.8037 4.16797C11.8002 4.16449 11.7965 4.16068 11.793 4.15723C11.7725 4.13741 11.7516 4.11767 11.7305 4.09863C11.7257 4.09431 11.7207 4.08925 11.7158 4.08496C11.705 4.07543 11.6936 4.06597 11.6826 4.05664C11.6787 4.05335 11.6748 4.05014 11.6709 4.04688C11.66 4.03776 11.6487 4.02845 11.6377 4.01953C11.6328 4.0156 11.6279 4.0117 11.623 4.00781C11.6169 4.00295 11.6107 3.99796 11.6045 3.99316C11.5975 3.98771 11.5901 3.98193 11.583 3.97656C11.5743 3.96996 11.5655 3.96351 11.5566 3.95703C11.5515 3.95327 11.5462 3.94903 11.541 3.94531C11.5314 3.93836 11.5215 3.93161 11.5117 3.9248C11.5043 3.91963 11.4967 3.91427 11.4893 3.90918L11.4453 3.87988C11.4368 3.87439 11.4285 3.86867 11.4199 3.86328C11.4139 3.8595 11.4074 3.85627 11.4014 3.85254C11.3952 3.84875 11.389 3.84456 11.3828 3.84082C11.3714 3.83394 11.3592 3.82699 11.3477 3.82031C11.3425 3.81736 11.3372 3.81444 11.332 3.81152C11.3237 3.80679 11.315 3.80151 11.3066 3.79688C11.2982 3.79224 11.2897 3.78774 11.2812 3.7832C11.2727 3.77862 11.2635 3.774 11.2549 3.76953L11.1826 3.7334C11.1758 3.73016 11.169 3.72681 11.1621 3.72363C11.1534 3.71964 11.1445 3.7158 11.1357 3.71191C11.1249 3.70708 11.1135 3.70193 11.1025 3.69727C11.098 3.69532 11.0934 3.69332 11.0889 3.69141C11.075 3.68559 11.0609 3.68035 11.0469 3.6748C11.0436 3.67352 11.0404 3.67217 11.0371 3.6709C11.0249 3.66613 11.0123 3.66081 11 3.65625C10.9961 3.65482 10.9921 3.65375 10.9883 3.65234C10.9739 3.64712 10.9588 3.64166 10.9443 3.63672C10.9413 3.63567 10.9377 3.63482 10.9346 3.63379C10.9201 3.62893 10.9052 3.62372 10.8906 3.61914C10.8864 3.61782 10.8822 3.61653 10.8779 3.61523C10.8664 3.61169 10.8544 3.60785 10.8428 3.60449C10.8383 3.60321 10.8336 3.60184 10.8291 3.60059C10.8146 3.59649 10.7998 3.59268 10.7852 3.58887C10.7814 3.58788 10.7772 3.58691 10.7734 3.58594C10.7575 3.58189 10.7416 3.57793 10.7256 3.57422C10.724 3.57386 10.7223 3.57359 10.7207 3.57324C10.7048 3.56959 10.6879 3.56581 10.6719 3.5625C10.6703 3.56217 10.6686 3.56185 10.667 3.56152C10.6504 3.55815 10.6339 3.55477 10.6172 3.55176C10.614 3.55119 10.6106 3.55133 10.6074 3.55078C10.5909 3.54787 10.5743 3.54455 10.5576 3.54199C10.5563 3.5418 10.555 3.54218 10.5537 3.54199C10.5382 3.53965 10.5224 3.53719 10.5068 3.53516C10.5037 3.53475 10.5002 3.5336 10.4971 3.5332C10.4813 3.53122 10.4651 3.52998 10.4492 3.52832C10.4448 3.52785 10.44 3.52681 10.4355 3.52637C10.4216 3.525 10.4076 3.52455 10.3936 3.52344C10.3881 3.523 10.3824 3.52188 10.377 3.52148C10.3628 3.52046 10.3482 3.52029 10.334 3.51953C10.3304 3.51934 10.3268 3.51873 10.3232 3.51855C10.3071 3.51777 10.2907 3.51705 10.2744 3.5166C10.2709 3.51651 10.2672 3.51668 10.2637 3.5166C10.2463 3.5162 10.2284 3.51563 10.2109 3.51562H3.51562V10.2109C3.51563 10.2299 3.51614 10.2488 3.5166 10.2676C3.51672 10.2724 3.51645 10.2774 3.5166 10.2822C3.51703 10.2959 3.51789 10.3096 3.51855 10.3232C3.51896 10.3315 3.52001 10.3404 3.52051 10.3486C3.52107 10.3581 3.52081 10.3675 3.52148 10.377C3.52216 10.3863 3.52362 10.396 3.52441 10.4053C3.52518 10.4143 3.5255 10.4236 3.52637 10.4326C3.52725 10.4418 3.5283 10.4509 3.5293 10.46C3.53039 10.47 3.53198 10.4803 3.5332 10.4902C3.53412 10.4977 3.53514 10.5052 3.53613 10.5127C3.53751 10.523 3.53853 10.5336 3.54004 10.5439C3.54124 10.5521 3.54266 10.5602 3.54395 10.5684C3.54548 10.5781 3.54717 10.588 3.54883 10.5977C3.55027 10.6061 3.55218 10.6147 3.55371 10.623C3.55561 10.6334 3.55753 10.644 3.55957 10.6543C3.56098 10.6614 3.562 10.6687 3.56348 10.6758C3.56553 10.6856 3.56813 10.6962 3.57031 10.7061C3.57211 10.7142 3.57331 10.7224 3.5752 10.7305C3.5778 10.7416 3.58121 10.7526 3.58398 10.7637C3.5855 10.7697 3.58632 10.7762 3.58789 10.7822C3.59074 10.7932 3.59367 10.8045 3.59668 10.8154C3.59845 10.8219 3.60071 10.8285 3.60254 10.835C3.61742 10.8872 3.6339 10.9387 3.65234 10.9893C3.65453 10.9952 3.65695 11.0018 3.65918 11.0078C3.66298 11.018 3.66696 11.028 3.6709 11.0381C3.67364 11.0451 3.67688 11.0526 3.67969 11.0596C3.6836 11.0693 3.68736 11.0792 3.69141 11.0889C3.69468 11.0967 3.69879 11.1045 3.70215 11.1123C3.70521 11.1194 3.7078 11.1267 3.71094 11.1338C3.71502 11.143 3.71943 11.152 3.72363 11.1611C3.72727 11.169 3.73065 11.1777 3.73438 11.1855L3.76855 11.2539C3.77293 11.2624 3.77775 11.2709 3.78223 11.2793C3.78644 11.2872 3.79061 11.2959 3.79492 11.3037L3.82031 11.3486C3.82493 11.3566 3.83025 11.3642 3.83496 11.3721C3.83929 11.3793 3.84325 11.3873 3.84766 11.3945C3.85281 11.403 3.85802 11.4116 3.86328 11.4199C3.86721 11.4262 3.87199 11.4323 3.87598 11.4385C3.88248 11.4486 3.88885 11.4588 3.89551 11.4688C3.91409 11.4967 3.93336 11.5247 3.95312 11.5518C3.95691 11.5569 3.96102 11.5622 3.96484 11.5674C3.96898 11.5729 3.97335 11.5785 3.97754 11.584C3.98426 11.5928 3.9912 11.6016 3.99805 11.6104C4.00279 11.6164 4.00789 11.6229 4.0127 11.6289C4.01806 11.6356 4.02288 11.6428 4.02832 11.6494C4.03553 11.6582 4.04344 11.6671 4.05078 11.6758C4.05406 11.6797 4.05724 11.6836 4.06055 11.6875C4.06832 11.6966 4.07607 11.7059 4.08398 11.7148L4.13086 11.7656C4.13825 11.7735 4.14581 11.7813 4.15332 11.7891C4.15828 11.7942 4.16296 11.7996 4.16797 11.8047C4.17527 11.8121 4.18303 11.8198 4.19043 11.8271C4.19484 11.8315 4.19966 11.8355 4.2041 11.8398C4.21202 11.8475 4.21951 11.8557 4.22754 11.8633C4.23189 11.8674 4.23683 11.8709 4.24121 11.875C4.24974 11.8829 4.25795 11.8916 4.2666 11.8994C4.26882 11.9014 4.27121 11.9033 4.27344 11.9053C4.31696 11.9442 4.36274 11.981 4.40918 12.0166C4.41444 12.0206 4.4195 12.0253 4.4248 12.0293C4.44884 12.0474 4.47328 12.0649 4.49805 12.082C4.50162 12.0845 4.5052 12.0874 4.50879 12.0898C4.51907 12.0969 4.52964 12.1035 4.54004 12.1104C4.54396 12.1129 4.54782 12.1156 4.55176 12.1182C4.56159 12.1246 4.5721 12.1305 4.58203 12.1367C4.58718 12.1399 4.59248 12.1433 4.59766 12.1465C4.60703 12.1523 4.61652 12.1584 4.62598 12.1641C4.63125 12.1672 4.6363 12.1707 4.6416 12.1738C4.65248 12.1802 4.66381 12.1862 4.6748 12.1924C4.67709 12.1937 4.67935 12.195 4.68164 12.1963C4.7089 12.2115 4.73671 12.2261 4.76465 12.2402C4.76821 12.242 4.77182 12.2443 4.77539 12.2461C4.86247 12.2896 4.9529 12.3272 5.0459 12.3594C5.04757 12.36 5.05008 12.3608 5.05176 12.3613C5.08331 12.3721 5.1153 12.3821 5.14746 12.3916L5.14941 12.3926C5.16407 12.3969 5.17956 12.4013 5.19434 12.4053C5.19714 12.406 5.20032 12.4065 5.20312 12.4072C5.21646 12.4108 5.22973 12.4147 5.24316 12.418C5.2468 12.4189 5.25124 12.42 5.25488 12.4209C5.26815 12.4241 5.28156 12.4267 5.29492 12.4297C5.29872 12.4305 5.30284 12.4318 5.30664 12.4326C5.3205 12.4356 5.33468 12.4387 5.34863 12.4414C5.3512 12.4419 5.35387 12.4419 5.35645 12.4424C5.37169 12.4453 5.38699 12.4485 5.40234 12.4512H5.4043C5.42088 12.454 5.43739 12.4575 5.4541 12.46H5.45703C5.56534 12.4758 5.67636 12.4844 5.78906 12.4844H11.4121L6.54785 7.61914V10.9688H5.78906C5.37082 10.9685 5.03147 10.6292 5.03125 10.2109V5.03125H10.2109C10.6292 5.03147 10.9685 5.37081 10.9688 5.78906C10.9688 6.2075 10.6293 6.54763 10.2109 6.54785H7.61914L12.4844 11.4121L14 12.9277V14H5.78906C3.69652 13.9998 2.00022 12.3035 2 10.2109V2H10.2109Z" fill="#B9FE67" style="fill:#B9FE67;fill:color(display-p3 0.7255 0.9961 0.4039);fill-opacity:1;"/>
</g>
<defs>
<clipPath id="clip0_4699_310">
<rect width="16" height="16" fill="white" style="fill:white;fill-opacity:1;"/>
</clipPath>
</defs>
</svg>
